<?xml version="1.0" encoding="utf-8"?>
<!-- Svg Vector Icons : http://www.onlinewebfonts.com/icon -->
<!DOCTYPE svg PUBLIC "-//W3C//DTD SVG 1.1//EN" "http://www.w3.org/Graphics/SVG/1.1/DTD/svg11.dtd">
<svg version="1.1" xmlns="http://www.w3.org/2000/svg" xmlns:xlink="http://www.w3.org/1999/xlink" x="0px" y="0px" viewBox="0 0 256 256" enable-background="new 0 0 256 256" xml:space="preserve">
<metadata> Svg Vector Icons : http://www.onlinewebfonts.com/icon </metadata>
<g><g><path fill="#000000" d="M242.9,58.5c-0.8-0.5-1.6-1.1-2.3-1.6c-3.3-2.4-8.3-1.3-11,2.2c-19.3,26-38.6,52-57.9,78c-0.3,0.4-0.5,0.8-0.7,1.3c1.4-0.1,2.9,0.2,4.1,1.1l12.7,8.9c1.2,0.8,2,2.1,2.4,3.5c0.3-0.3,0.7-0.7,0.9-1.1c17.8-27,35.7-54.1,53.5-81.1C247,65.8,246.3,60.8,242.9,58.5L242.9,58.5z"/><path fill="#000000" d="M186.1,150.6l-12.7-8.9c-1.1-0.8-2.5-0.8-3.7-0.1l-22.2,13.7c-1.3,0.8-1.9,2.4-1.4,3.8c2.6,8.6-1.5,27.7-3.3,34.4c-0.4,1.4,0.1,2.8,1.3,3.6c1.2,0.8,2.7,0.8,3.9,0c5.6-4,22.2-14.4,31.2-14.9c1.5-0.1,2.8-1.2,3.1-2.6l5.3-25.6C187.7,152.8,187.2,151.4,186.1,150.6L186.1,150.6z M176.1,175.9c-5.2,0.9-11.8,3.6-19.7,8.1c-0.3,0.1-0.6,0.3-0.8,0.5l10.3-14.7c1.3,0,2.8-0.5,3.6-1.8c1.3-1.9,0.8-4.4-1-5.7c-1.9-1.3-4.4-0.8-5.7,1c-0.9,1.3-1,2.8-0.3,4.1l-10.3,14.7c0-0.3,0.1-0.6,0.1-0.9c1.5-9,1.8-16.2,0.9-21.3l18.3-11.3l9.1,6.3L176.1,175.9L176.1,175.9z"/><path fill="#000000" d="M172.8,195.9c-3.7,0-6.6,3-6.6,6.6V213H23.2V42.9h142.9v71.2c0,3.7,3,6.6,6.6,6.6s6.6-3,6.6-6.6V36.3c0-3.7-3-6.6-6.6-6.6H16.6c-3.7,0-6.6,3-6.6,6.6v183.4c0,3.7,3,6.6,6.6,6.6h156.1c3.7,0,6.6-3,6.6-6.6v-17.1C179.4,198.9,176.4,195.9,172.8,195.9L172.8,195.9z"/><path fill="#000000" d="M46.7,62.4h95.9v11.1H46.7V62.4L46.7,62.4z"/><path fill="#000000" d="M46.7,94.5h95.9v11.1H46.7V94.5L46.7,94.5z"/><path fill="#000000" d="M46.7,126.7h95.9v11.1H46.7V126.7L46.7,126.7z"/><path fill="#000000" d="M46.7,180.5h81.7v11.1H46.7V180.5L46.7,180.5z"/></g></g>
</svg>