<svg width="28" height="28" viewBox="0 0 28 28" fill="none" xmlns="http://www.w3.org/2000/svg">
    <path d="M14.0003 0C14.5525 0 15.0003 0.447715 15.0003 1V3C15.0003 3.55228 14.5525 4 14.0003 4C13.448 4 13.0003 3.55228 13.0003 3V1C13.0003 0.447715 13.448 0 14.0003 0ZM14.0003 21C17.8662 21 21.0003 17.866 21.0003 14C21.0003 10.134 17.8662 7 14.0003 7C10.1343 7 7.00025 10.134 7.00025 14C7.00025 17.866 10.1343 21 14.0003 21ZM14.0003 19C11.2388 19 9.00025 16.7614 9.00025 14C9.00025 11.2386 11.2388 9 14.0003 9C16.7617 9 19.0003 11.2386 19.0003 14C19.0003 16.7614 16.7617 19 14.0003 19ZM27.0003 15C27.5525 15 28.0003 14.5523 28.0003 14C28.0003 13.4477 27.5525 13 27.0003 13H25.0003C24.448 13 24.0003 13.4477 24.0003 14C24.0003 14.5523 24.448 15 25.0003 15H27.0003ZM14.0003 24C14.5525 24 15.0003 24.4477 15.0003 25V27.0005C15.0003 27.5528 14.5525 28.0005 14.0003 28.0005C13.448 28.0005 13.0003 27.5528 13.0003 27.0005V25C13.0003 24.4477 13.448 24 14.0003 24ZM3.00025 15C3.55254 15 4.00025 14.5523 4.00025 14C4.00025 13.4477 3.55254 13 3.00025 13H1C0.447715 13 0 13.4477 0 14C0 14.5523 0.447715 15 1 15H3.00025ZM3.29314 3.29369C3.68367 2.90316 4.31683 2.90316 4.70736 3.29369L6.70736 5.29369C7.09788 5.68421 7.09788 6.31738 6.70736 6.7079C6.31683 7.09842 5.68367 7.09842 5.29314 6.7079L3.29314 4.7079C2.90262 4.31738 2.90262 3.68421 3.29314 3.29369ZM4.70736 24.708C4.31683 25.0985 3.68367 25.0985 3.29314 24.708C2.90262 24.3175 2.90262 23.6843 3.29314 23.2938L5.29314 21.2938C5.68367 20.9033 6.31683 20.9033 6.70736 21.2938C7.09788 21.6843 7.09788 22.3175 6.70736 22.708L4.70736 24.708ZM24.7074 3.29369C24.3168 2.90316 23.6837 2.90316 23.2931 3.29369L21.2931 5.29369C20.9026 5.68421 20.9026 6.31738 21.2931 6.7079C21.6837 7.09842 22.3168 7.09842 22.7074 6.7079L24.7074 4.7079C25.0979 4.31738 25.0979 3.68421 24.7074 3.29369ZM21.2931 22.708L23.2931 24.708C23.6837 25.0985 24.3168 25.0985 24.7074 24.708C25.0979 24.3175 25.0979 23.6843 24.7074 23.2938L22.7074 21.2938C22.3168 20.9033 21.6837 20.9033 21.2931 21.2938C20.9026 21.6843 20.9026 22.3175 21.2931 22.708Z" fill="#BABABA"/>
</svg>
