<svg width="27" height="28" viewBox="0 0 27 28" fill="none" xmlns="http://www.w3.org/2000/svg">
    <path d="M12.7971 0.630834C12.6186 0.841583 12.5526 1.12542 12.6198 1.3933C13.3652 4.36563 13.8828 8.84317 11.9243 12.7595C10.9435 14.7208 9.18657 16.211 7.15947 17.3342C5.13656 18.455 2.9072 19.1751 1.08005 19.6248C0.817794 19.6893 0.601298 19.8737 0.495814 20.1223C0.39033 20.3709 0.408198 20.6547 0.544034 20.8882C2.91829 24.9684 7.34069 27.7143 12.4054 27.7143C19.9796 27.7143 26.1197 21.5742 26.1197 14C26.1197 6.80094 20.5733 0.898153 13.5199 0.330405C13.2447 0.308247 12.9756 0.420086 12.7971 0.630834ZM14.5561 2.19208C20.1569 3.20526 24.4054 8.10686 24.4054 14C24.4054 20.6274 19.0329 26 12.4054 26C8.38382 26 4.82337 24.0221 2.64509 20.9828C4.31532 20.5067 6.21299 19.8184 7.99029 18.8337C10.1888 17.6156 12.2661 15.9086 13.4575 13.5263C15.4193 9.60342 15.1731 5.28999 14.5561 2.19208Z" fill="#51ADA2"/>
</svg>
